<svg width="130" height="128" viewBox="0 0 130 128" fill="none" xmlns="http://www.w3.org/2000/svg">
<rect width="130" height="128" rx="20" fill="white"/>
<path d="M55.5 50.9997C42.5 43.5 18.5 63.5 15 82.4997V83L25.5 78.5C28 85.1667 35.5 98.8 45.5 100C45.9938 99.0125 46.6826 95.6843 45.544 90.2083L45.5 89.5C37 78 38 61 55.5 50.9997Z" fill="#FA9464"/>
<path d="M45.5 90C45.5149 90.0698 45.5296 90.1392 45.544 90.2083M45.544 90.2083C46.6826 95.6843 45.9938 99.0125 45.5 100C35.5 98.8 28 85.1667 25.5 78.5L15 83V82.4997C18.5 63.5 42.5 43.5 55.5 50.9997C38 61 37 78 45.5 89.5L45.544 90.2083Z" stroke="#FA9464"/>
<path d="M77.4415 55.8515C85.5689 43.2345 66.7686 18.2836 47.9631 13.8571L47.4634 13.8326L51.4437 24.5404C44.6626 26.7109 30.6782 33.5341 28.9898 43.4633C29.952 44.0048 33.2424 44.8559 38.7677 43.9868L39.4772 43.9776C51.3798 36.0511 68.3104 37.8827 77.4415 55.8515Z" fill="#FA9464"/>
<path d="M38.9778 43.9531C38.9074 43.9646 38.8374 43.9759 38.7677 43.9868M38.7677 43.9868C33.2424 44.8559 29.952 44.0048 28.9898 43.4633C30.6782 33.5341 44.6626 26.7109 51.4437 24.5404L47.4634 13.8326L47.9631 13.8571C66.7686 18.2836 85.5689 43.2345 77.4415 55.8515C68.3104 37.8827 51.3798 36.0511 39.4772 43.9776L38.7677 43.9868Z" stroke="#FA9464"/>
<path d="M74.5313 76.9911C87.3837 84.741 111.766 65.2093 115.633 46.2809L115.643 45.7807L105.058 50.0766C102.687 43.3628 95.4527 29.5869 85.4778 28.1936C84.965 29.1714 84.2119 32.4855 85.2443 37.9826L85.2746 38.6916C93.5504 50.354 92.2216 67.3314 74.5313 76.9911Z" fill="#32AEAC"/>
<path d="M85.2843 38.1917C85.2707 38.1216 85.2574 38.052 85.2443 37.9826M85.2443 37.9826C84.2119 32.4855 84.965 29.1714 85.4778 28.1936C95.4527 29.5869 102.687 43.3628 105.058 50.0766L115.643 45.7807L115.633 46.2809C111.766 65.2093 87.3837 84.741 74.5313 76.9911C92.2216 67.3314 93.5504 50.354 85.2746 38.6916L85.2443 37.9826Z" stroke="#32ADAB"/>
<path d="M53.2156 74.0039C45.6837 86.9853 65.6241 111.035 84.6151 114.582L85.1154 114.583L80.6414 104.072C87.3143 101.589 100.966 94.1223 102.191 84.1254C101.205 83.6291 97.8782 82.9321 92.3994 84.0571L91.691 84.0993C80.1699 92.5708 63.1725 91.5286 53.2156 74.0039Z" fill="#32AEAC"/>
<path d="M92.191 84.1006C92.2608 84.0858 92.3302 84.0713 92.3994 84.0571M92.3994 84.0571C97.8782 82.9321 101.205 83.6291 102.191 84.1254C100.966 94.1223 87.3143 101.589 80.6414 104.072L85.1154 114.583L84.6151 114.582C65.6241 111.035 45.6837 86.9853 53.2156 74.0039C63.1725 91.5286 80.1699 92.5708 91.691 84.0993L92.3994 84.0571Z" stroke="#32ADAB"/>
</svg>
